<svg version="1.0" xmlns="http://www.w3.org/2000/svg" width="346.667" height="346.667" viewBox="0 0 260 260"><path d="M0 130v130h260V0H0v130zm201.5-56.9c12.2 2.2 21.6 8.3 25.4 16.4 2.5 5.3 2.8 14.8.7 19.9-2 4.7-7.3 10.4-12 12.8l-4.1 2.1 4.5 1.5c6.8 2.3 14.4 10.5 16.6 17.7 2.9 10.1.4 20.8-6.6 28.8-7.8 8.9-19.5 12.6-42.6 13.4-8.8.3-19.9.2-24.7-.2l-8.7-.7V74.1l4.3-.5c2.3-.3 5.6-.7 7.2-.9 7.2-.9 34.6-.6 40 .4zm-98.6 6.6c1.2 3.8 9 29 17.4 56l15.4 49.3h-27.6l-3.1-10.3c-1.7-5.6-3.7-12-4.4-14.2l-1.3-4-15.9-.3-15.9-.2-4 14.5-3.9 14.5H46.2c-12.2 0-13.3-.1-12.8-1.8 1.2-3.9 28.6-93.3 31.1-101.5l2.6-8.7h33.8l2 6.7z"/><path d="M175 104.1v13.2l8.9-.5c10.4-.6 16.1-3.2 18.6-8.4 2-4.3 1.9-7.2-.5-11.2-2.9-4.7-7.3-6.2-18-6.2h-9v13.1zm0 46.9v16.2l9.8-.4c15.5-.7 21.7-5.1 21.7-15.5 0-9.9-6.8-14.8-22.2-15.9l-9.3-.7V151zm-96.2-42.2c-2 8.1-4.6 17.7-5.7 21.4l-2 6.8h24.6l-4.8-16.2c-2.7-8.9-5.4-18.6-6-21.5-.7-2.9-1.5-5.3-1.8-5.3-.3 0-2.3 6.7-4.3 14.8z"/></svg>